<svg id="图层_2" data-name="图层 2" xmlns="http://www.w3.org/2000/svg" viewBox="0 0 228 298"><title>12911511087924_.pic</title><path d="M41.06,293.34V273.66L24.86,247h7.27l7.32,13.21c2,3.61,3.44,6.13,5,9.26h.13c1.39-2.87,3.1-5.74,5.08-9.24L57.27,247h7.21L47.33,273.62v19.72Z"/><path d="M112.17,269.63c0,15.43-11,24.53-24.22,24.53-13.83,0-23.51-10-23.51-23.46,0-14.46,10.28-24.57,24.1-24.57C102.78,246.13,112.17,256.2,112.17,269.63Zm-41.11.87c0,10.06,6.57,18.72,17.2,18.72s17.3-8.28,17.3-19.29c0-9.43-5.9-18.85-17.18-18.85S71.06,260.12,71.06,270.5Z"/><path d="M159.89,291a48.91,48.91,0,0,1-16.28,2.86c-8,0-14.49-2-19.47-6.67-4.21-3.94-6.74-10-6.74-16.8,0-12.43,9.6-23.88,27.61-23.88a34,34,0,0,1,13.26,2.41l-1.6,5a27.91,27.91,0,0,0-11.88-2.27c-13.08,0-20.82,7.8-20.82,18.5,0,10.91,7.59,18.65,20.2,18.65,4.63,0,7.83-.64,9.53-1.49V273.88H143.17V269h16.72Z"/><path d="M177.81,278.54l-5.36,14.8h-6.58L183.37,247H191l17.69,46.38h-6.8l-5.61-14.8Zm17.12-4.83-5.31-13.87c-1.12-2.95-1.84-5.36-2.57-7.75h-.14c-.71,2.44-1.44,4.9-2.44,7.63l-5.28,14Z"/><path d="M113.76,5.25A109.36,109.36,0,0,0,89.18,221.17c2.56.59,5.17,1.09,7.77,1.49H97a4,4,0,1,0,1.16-7.88h0v0c-2.41-.37-4.83-.83-7.2-1.38a101.42,101.42,0,1,1,29.16,2.37c-.63,0-1.46.08-2.32.1l.59-40.64A27.58,27.58,0,0,0,132,168.56a67,67,0,0,0,14.37,1.63,51.57,51.57,0,0,0,36-14.08A61.05,61.05,0,0,0,197.05,135l.75-2-1.27-1.75A58.41,58.41,0,0,0,179.88,117C186.34,96.84,187,75.74,187,74.4l.1-3.85-3.84-.25c-1.34-.08-22.38-1.33-43,3.28-6.92-18.11-24.79-29.23-25.57-29.71l-2-1.22-2,1.13C110,44.15,95,52.69,86,71.91a148.87,148.87,0,0,0-39.59-1.59l-3.35.37-.2,3.36c-.08,1.3-1.16,21.67,5.33,41.94a58.8,58.8,0,0,0-18.36,15.25L28.57,133l.76,2A61.05,61.05,0,0,0,44,156.11a51.55,51.55,0,0,0,36,14.08,67.4,67.4,0,0,0,15.12-1.8,27.46,27.46,0,0,0,15.29,7L109.7,224l4.12-.07c.18,0,4.55-.07,6.81-.21A109.35,109.35,0,0,0,113.76,5.25Zm74.89,129a54.94,54.94,0,0,1-11.72,16c-10.6,9.89-23.78,13.64-39.23,11.22a27.92,27.92,0,0,0,2-4.38,44.75,44.75,0,0,0,23.87-11.73c5.85-5.35,10.24-12.75,13.55-20.77A53.85,53.85,0,0,1,188.65,134.27ZM175.32,78.11c1.31,0,2.48,0,3.48,0-.81,11.75-4.53,46.59-20.65,61.33-12.15,11.11-25.06,11.5-34.61,8.76a24.49,24.49,0,0,0,2.06-2c8.58-9.38,15.69-35.36-4.35-57C137.11,79.43,162.74,78.11,175.32,78.11Zm-55.63,62.76a21,21,0,0,1-4.72,3.69,21.94,21.94,0,0,1-4.78-3.69C104.86,135,96,112.48,114.9,94.16,132,112.14,126.57,133.34,119.69,140.87Zm-7.1-88.8c4.47,3.2,15.07,11.72,19.91,23.57a65.1,65.1,0,0,0-17.35,8A62.9,62.9,0,0,0,94,73.77,60.13,60.13,0,0,1,112.59,52.07Zm-74.88,82.2A53,53,0,0,1,51,123.58c3.49,8.15,8.43,15.88,15.4,21.88a48.35,48.35,0,0,0,20.94,10.88,27.48,27.48,0,0,0,2.17,5C55.83,167.05,41.28,141.87,37.71,134.27Zm33.94,5.13C52.29,122.74,50.76,88.89,50.79,78c10.14-.63,40.09-1.31,58,10.94-20.77,20.7-13.25,47.78-4.51,57.33a21.49,21.49,0,0,0,2,1.91,35.71,35.71,0,0,1-5.75,1C93.36,149.91,82.53,148.77,71.65,139.4Zm42,28.21a19.57,19.57,0,0,1-17.16-10.2H97a44.07,44.07,0,0,0,18-3.85,45.25,45.25,0,0,0,15.83,3.93A19.57,19.57,0,0,1,113.66,167.61Z"/></svg>